# xmcd
#
# Track frame offsets: 
#        150
#        3156
#        13721
#        20228
#        30809
#        41374
#        50479
#        59681
#        68883
#        77988
#        89496
#        100866
#        112236
#        123606
#        133141
#        138176
#        152240
#        165088
#        177938
#        189012
#        199957
#        210902
#        222077
#        233252
#        244427
#        255602
#        265027
#        276484
#        287941
#
# Disc length: 3973 seconds
#
# Revision: 0
# Processed by: cddbd v1.5.2PL0 Copyright (c) Steve Scherf et al.
# Submitted via: ExactAudioCopy v0.95b3
#
DISCID=9c0f831d
DTITLE=The Beatles  - Rubber Soul Recording Sessions Reconstructed - D
DTITLE=isc 1
DYEAR=1900
DGENRE=
TTITLE0=Run For Your Life - Take 1
TTITLE1=Run For Your Life - Take 5
TTITLE2=Run For Your Life - SI onto take 5
TTITLE3=Run For Your Life - SI onto take 5
TTITLE4=Run For Your Life - SI onto take 5
TTITLE5=Norwegian Wood - Take 1
TTITLE6=Norwegian Wood - SI onto take 1
TTITLE7=Norwegian Wood - SI onto take 1
TTITLE8=Norwegian Wood - Take 1 complete
TTITLE9=Drive My Car - Take 4
TTITLE10=Drive My Car - SI onto take 4
TTITLE11=Drive My Car - SI onto take 4
TTITLE12=Drive My Car - SI onto take 4
TTITLE13=Day Tripper - Take 1
TTITLE14=Day Tripper - Take 2
TTITLE15=Day Tripper - Take 3
TTITLE16=Day Tripper - SI onto take 3
TTITLE17=Day Tripper - SI onto take 3
TTITLE18=If I Needed Someone - Take 1
TTITLE19=If I Needed Someone - SI onto take 1
TTITLE20=If I Needed Someone - SI onto take 1
TTITLE21=In My Life - Take 3
TTITLE22=In My Life - Take 3
TTITLE23=In My Life - SI onto take 3
TTITLE24=In My Life - SI onto take 3
TTITLE25=We Can Work It Out - Take 2
TTITLE26=We Can Work It Out - Take 2
TTITLE27=We Can Work It Out - SI onto take 2
TTITLE28=We Can Work It Out - SI onto take 2
EXTD=
EXTT0=
EXTT1=
EXTT2=
EXTT3=
EXTT4=
EXTT5=
EXTT6=
EXTT7=
EXTT8=
EXTT9=
EXTT10=
EXTT11=
EXTT12=
EXTT13=
EXTT14=
EXTT15=
EXTT16=
EXTT17=
EXTT18=
EXTT19=
EXTT20=
EXTT21=
EXTT22=
EXTT23=
EXTT24=
EXTT25=
EXTT26=
EXTT27=
EXTT28=
PLAYORDER=
